<svg xmlns="http://www.w3.org/2000/svg" class="dark:text-white" width="903" height="109" fill="none" xmlns:v="https://vecta.io/nano"><path d="M0 .5V83h23.9c22.7 0 41.6-17.2 41.6-41.3 0-24-19-41.2-41.6-41.2H0zm18.8 65.7V17.3h2.9c14 0 23.5 10.7 23.5 24.5-.1 13.8-9.6 24.4-23.5 24.4h-2.9zm93.342-34.5L99.942 58l-14.3-26.3h-20.4l24.3 43.3-17.7 34h20.4l40.3-77.3h-20.4zM136.523 83h17.7V54c0-5.1 5.2-10 10.5-10 5.7 0 9.2 4.9 9.2 10v29h17.7V49.2c0-14.3-13.1-19-22.5-19-5.6 0-10.7 2.9-14.7 6.9h-.2v-5.4h-17.7V83zm62.414-25.6c0 15 10.5 27.1 25.5 27.1 7 0 13-3.1 16.8-7.3h.2V83h17.5V31.7h-17.7v4.9c-4.2-4.1-9.9-6.4-16.8-6.4-15 0-25.5 12.2-25.5 27.2zm18.8 0c0-7.1 5.3-12.1 12-12.1 6.6 0 11.9 5 11.9 12.1 0 7-5 12-11.9 12-7.2 0-12-5-12-12zM270.898 83h17.7V53c0-4.1 2.3-8.6 8.2-8.6 6.3 0 9 4.5 9 9.6v29h17.7V52.4c.2-3.9 2.6-8 8.2-8 6.3 0 9 4.5 9 9.6v29h17.7V49.2c0-14.3-10.6-19-20-19-5.6 0-11.6 2.9-17 9.4-3.6-6.9-11.1-9.4-17.9-9.4-5.6 0-10.7 2.9-14.7 6.9h-.2v-5.4h-17.7V83zM378.534 0a10.5 10.5 0 1 0 0 21 10.5 10.5 0 1 0 0-21zm-9.1 31.7h17.7V83h-17.7V31.7zm57.475 13c5.3 0 8.6 2.4 8.6 2.4l6-12.1s-5.8-4.8-17.2-4.8c-14.9 0-28.4 12.2-28.4 27.3 0 15 13.6 27 28.4 27 11.4 0 17.2-4.6 17.2-4.6l-6-12.3s-3.3 2.4-8.6 2.4c-6.7 0-12.2-5.6-12.2-12.7 0-7 5.5-12.6 12.2-12.6zM476.074.5V83h31.3c17.1 0 27-9.4 27-23 0-13.3-7.3-19-17.6-20.8 7-3.6 10.3-10.1 10.3-17.7 0-15.7-11.2-21-25.4-21h-25.6zm18.8 32.3V15h1.5c8.2 0 12.5 2.5 12.5 8.4 0 6.9-4.4 9.4-12.5 9.4h-1.5zm0 35.7V49h5.9c8.9 0 13.8 2.7 13.8 10.3 0 6.5-4.9 9.2-13.8 9.2h-5.9zm64.502-36.8h-17.7v28.7c0 17.2 8.6 24.1 27.8 24.1s27.8-6.9 27.8-24.1V31.7h-17.7v24.4c0 10.1-2.7 14-10.1 14s-10.1-3.9-10.1-14V31.7zm70.834-1.5c-13.5 0-22.4 6-22.4 16.5 0 7.7 5.2 11.3 10.4 14 5.8 3 11.4 3.3 11.4 7 0 3.4-3 3.7-5.5 3.7-5.7 0-12.7-5.9-12.7-5.9l-7.2 12.1s7.4 6.9 19.8 6.9c10.5 0 24.3-2.4 24.3-17.5 0-10.5-8.8-14.3-15.6-16.4-4.4-1.4-8-2.2-8-4.9 0-2.4 1.6-3.1 5.5-3.1 5.4 0 11.4 3.2 11.4 3.2l5.8-11.6s-7.3-4-17.2-4zM666.229 0a10.5 10.5 0 1 0 0 21 10.5 10.5 0 1 0 0-21zm-9.1 31.7h17.7V83h-17.7V31.7zM687.305 83h17.7V54c0-5.1 5.2-10 10.5-10 5.7 0 9.2 4.9 9.2 10v29h17.7V49.2c0-14.3-13.1-19-22.5-19-5.6 0-10.7 2.9-14.7 6.9h-.2v-5.4h-17.7V83zm118.013-23.2c.1-.6.1-1.7.1-2.4 0-18-11.9-27.2-27.5-27.2-15.5 0-28.2 12.2-28.2 27.2 0 14.9 12.7 27.1 28.2 27.1 11.4 0 20.8-3.7 26.6-13.4l-12.8-6.4c-4.3 4.6-6.8 5.7-12.5 5.7-4.5 0-11.1-2.7-11.1-10.6h37.2zm-36.7-9.8c.3-4.7 3.7-8.3 9.8-8.3 5.2 0 8.9 2.9 9.7 8.3h-19.5zm66.963-19.8c-13.5 0-22.4 6-22.4 16.5 0 7.7 5.2 11.3 10.4 14 5.8 3 11.4 3.3 11.4 7 0 3.4-3 3.7-5.5 3.7-5.7 0-12.7-5.9-12.7-5.9l-7.2 12.1s7.4 6.9 19.8 6.9c10.5 0 24.3-2.4 24.3-17.5 0-10.5-8.8-14.3-15.6-16.4-4.4-1.4-8-2.2-8-4.9 0-2.4 1.6-3.1 5.5-3.1 5.4 0 11.4 3.2 11.4 3.2l5.8-11.6s-7.3-4-17.2-4zm49.219 0c-13.5 0-22.4 6-22.4 16.5 0 7.7 5.2 11.3 10.4 14 5.8 3 11.4 3.3 11.4 7 0 3.4-3 3.7-5.5 3.7-5.7 0-12.7-5.9-12.7-5.9l-7.2 12.1s7.4 6.9 19.8 6.9c10.5 0 24.3-2.4 24.3-17.5 0-10.5-8.8-14.3-15.6-16.4-4.4-1.4-8-2.2-8-4.9 0-2.4 1.6-3.1 5.5-3.1 5.4 0 11.4 3.2 11.4 3.2l5.8-11.6s-7.3-4-17.2-4z" fill="#3a3a3a"/></svg>