<?xml version="1.0" encoding="utf-8"?>
<!-- Generator: Adobe Illustrator 23.0.1, SVG Export Plug-In . SVG Version: 6.00 Build 0)  -->
<svg version="1.1" id="Layer_1" xmlns="http://www.w3.org/2000/svg" xmlns:xlink="http://www.w3.org/1999/xlink" x="0px" y="0px"
	 viewBox="0 0 623.5 132.9" style="enable-background:new 0 0 623.5 132.9;" xml:space="preserve">
<style type="text/css">
	.st0{fill:#2E4B8D;}
	.st1{fill:url(#SVGID_1_);}
</style>
<path class="st0" d="M31.7,100C11.8,100-0.9,89.5,0.1,72.6h20.4c1.4,6.7,9,9.1,14.9,9.1c8.1,0,14.6-2.4,15.5-7
	c0.9-4.4-1.5-6.2-14.8-8.4c-13.6-2.1-31.5-5.9-28-23.4c2.5-12.3,15.8-25.1,38.5-25.1c18,0,29.4,9.7,29,24.5H54.7
	c-0.5-3.6-4.3-6.5-11.8-6.5c-9.3,0-13.8,3.3-14.3,6.2c-0.8,4.1,4.7,5.5,14.1,7c18.8,3.2,32,7.5,28.6,24.5C68.3,89,51.8,100,31.7,100
	z M192.1,98.2H172l9.2-45.8c0.9-4.4,1.5-14.9-11.8-14.9c-8.8,0-16.4,6.1-18.2,14.9L142,98.2h-20.1l9.2-45.8
	c0.9-4.4,1.6-14.9-11.6-14.9c-9,0-16.4,6.1-18.2,14.9l-9.2,45.8H72l9.1-45.3c4-19.9,20.8-35,42.3-35c10.7,0,18.5,4.3,22.7,11.1
	c7.3-6.9,17-11.1,27.2-11.1c21.9,0,31.9,14.5,27.8,35L192.1,98.2z M278.4,98.2h-19l1.7-8.2c-7.2,6.5-16.4,9.9-25.9,9.9
	c-20.7,0-33.9-18.2-29.4-40.8c4.5-22.7,24.8-41.2,48.6-41.2c23.6,0,36.4,18.6,31.9,41.2L278.4,98.2z M250.5,36.7
	c-11.1,0-22,9.6-24.6,22.5c-2.5,12.5,4.6,22.1,15.7,22.1s22.1-9.9,24.5-22.1C268.6,46.8,261.6,36.7,250.5,36.7z M335.7,36.9
	l2.4-11.8l1.4-7c-24.2-2-41.7,13.2-46,34.8l-9.1,45.3h20.1l9.1-45.3C315.6,42.4,324.5,35.8,335.7,36.9z M354.5,65.3l5.5-27.7
	l0.1-0.3l27-19.4H364L367.6,0h-20.1l-13.1,65.3c-4.3,21.4,5.1,35.3,28.6,32.9l2.7-13.4l1-4.9C356.5,80.4,352.3,76.3,354.5,65.3z"/>
<linearGradient id="SVGID_1_" gradientUnits="userSpaceOnUse" x1="492.2051" y1="-21.3776" x2="492.2051" y2="95.0884" gradientTransform="matrix(1 0 0 -1 0 111.3511)">
	<stop  offset="0" style="stop-color:#C3D941"/>
	<stop  offset="1" style="stop-color:#39AE4B"/>
</linearGradient>
<path class="st1" d="M534.8,98.2h-19l1.6-8.2c-7.2,6.5-16.4,9.9-25.9,9.9c-20.7,0-33.9-18.2-29.4-40.8c4.5-22.7,24.8-41.2,48.6-41.2
	c23.6,0,36.4,18.6,31.9,41.2L534.8,98.2z M506.9,36.7c-11.1,0-22,9.6-24.6,22.5c-2.5,12.5,4.6,22.1,15.7,22.1
	c11.1,0,22.1-9.9,24.5-22.1C525,46.8,518,36.7,506.9,36.7z M410.8,99.5c-9.2,0-16.4-3.1-21.2-9.2l-8.3,42.5H361l14.5-74.6
	c4.4-22.6,24.7-41.1,48.5-41.1c23.7,0,36.8,18.5,32.4,41.1C452,81,431.6,99.5,410.8,99.5z M420.4,36c-11.2,0-22.1,9.9-24.5,22.2
	c-2.4,12.5,4.6,22.6,15.8,22.6c11.2,0,22.1-9.8,24.6-22.6C438.7,45.5,431.6,36,420.4,36z M608.3,98.9c-4,20.4-20,34-40.3,34
	c-16.6,0-28.2-10.9-27.8-26.5h20.1c0.1,5.6,4.5,8.4,11.2,8.4c10.6,0,15.7-7.5,17.1-14.6l1.7-8.8c-5.3,3.8-11.6,6.2-18.6,6.2
	c-18.5,0-28.3-13.4-24.4-33.2l8.6-44.3h19.4l-8.6,44.3c-0.8,4.3-1.4,14.8,11.2,14.8c8.7,0,15.9-6.3,17.6-14.8l8.6-44.3h19.4
	L608.3,98.9z"/>
</svg>
